<svg width="0" height="0" class="hidden">
  <symbol fill="none" xmlns="http://www.w3.org/2000/svg" viewBox="0 0 24 24" id="google">
    <path d="M17.3929 11.3023H11.6268C11.6268 11.902 11.6268 13.1013 11.6231 13.701H14.9644C14.8364 14.3006 14.3824 15.1402 13.741 15.5629C13.7404 15.5623 13.7398 15.5665 13.7385 15.5659C12.8857 16.129 11.7603 16.2567 10.9247 16.0888C9.61488 15.8286 8.5783 14.8787 8.15741 13.6722C8.15986 13.6704 8.1617 13.6536 8.16354 13.6524C7.90011 12.904 7.90011 11.902 8.16354 11.3023H8.16293C8.50233 10.2001 9.57016 9.19451 10.8818 8.91926C11.9368 8.69559 13.1271 8.93785 14.0026 9.75699C14.119 9.64305 15.6138 8.18347 15.7259 8.06474C12.735 5.35607 7.94605 6.30893 6.15409 9.80676H6.15348C6.15348 9.80676 6.15409 9.80676 6.15041 9.81336C5.26393 11.5314 5.30069 13.5559 6.15654 15.1917C6.15409 15.1935 6.15225 15.1947 6.15041 15.1965C6.92601 16.7017 8.33753 17.856 10.0382 18.2956C11.8449 18.7693 14.1441 18.4455 15.6843 17.0525C15.6849 17.0531 15.6855 17.0537 15.6861 17.0543C16.991 15.8789 17.8034 13.8767 17.3929 11.3023Z" fill="white"></path>
  </symbol>
  <symbol fill="none" xmlns="http://www.w3.org/2000/svg" viewBox="0 0 24 24" id="twitter">
    <path d="M9.403 18C14.6859 18 17.5755 13.3827 17.5755 9.3791C17.5755 9.24766 17.5755 9.11696 17.5671 8.987C18.1292 8.55873 18.6143 8.02707 19 7.41862C18.4764 7.66378 17.9199 7.82475 17.3508 7.89564C17.95 7.51683 18.3987 6.92168 18.6136 6.21945C18.0494 6.57241 17.4327 6.82125 16.7894 6.95491C15.7016 5.73506 13.8823 5.67598 12.7252 6.82347C11.9797 7.56335 11.6626 8.66653 11.8943 9.71876C9.585 9.59619 7.4332 8.44575 5.9744 6.55321C5.2121 7.93773 5.602 9.70843 6.8641 10.5975C6.407 10.5834 5.9597 10.4535 5.56 10.2187V10.2571C5.5607 11.6992 6.5246 12.9412 7.8644 13.2269C7.4416 13.3488 6.9978 13.3665 6.568 13.2786C6.9439 14.5132 8.0226 15.3587 9.2511 15.3831C8.234 16.2263 6.9775 16.6842 5.6839 16.6827C5.4557 16.6819 5.2275 16.6679 5 16.6391C6.3139 17.5282 7.842 18 9.403 17.9978" fill="white"></path>
  </symbol>
    <symbol fill="none" xmlns="http://www.w3.org/2000/svg" viewBox="0 0 24 24" id="facebook">
    <path d="M13.457 19V12.7H15.643L16 9.9H13.457V8.5364C13.457 7.8154 13.4781 7.1 14.6295 7.1H15.7958V5.098C15.7958 5.0679 14.794 5 13.7805 5C11.664 5 10.3387 6.1599 10.3387 8.29V9.9H8V12.7H10.3387V19H13.457Z" fill="white"></path>
  </symbol>
</svg>